<?xml version="1.0" encoding="utf-8"?>
<!-- Generator: Adobe Illustrator 19.2.1, SVG Export Plug-In . SVG Version: 6.00 Build 0)  -->
<svg version="1.1" id="Layer_1" xmlns="http://www.w3.org/2000/svg" xmlns:xlink="http://www.w3.org/1999/xlink" x="0px" y="0px"
	 viewBox="0 0 863.1 140.7" style="enable-background:new 0 0 863.1 140.7;" xml:space="preserve">
<image style="overflow:visible;" width="103" height="60" xlink:href="2154F270.jpg"  transform="matrix(9.1476 0 0 3.6 -64 -43.7)">
</image>
<g>
	<path d="M162.6,99.7c-0.4,0.1-1.3-0.2-2.6-0.8c-1.3-0.6-2.4-1.6-3.3-3c-0.9-1.3-1.7-2.8-2.4-4.5c-0.6-1.6-1.2-3.3-1.7-4.8
		c-1-3.4-1.9-6.8-2.7-10.5c-0.1-0.3-0.1-0.5-0.1-0.6c0-0.2,0-0.3,0-0.3c0-1.2,0.6-2.1,1.8-2.8c0.3-0.4,0.7-0.6,1.3-0.6
		s1.2,0.2,1.8,0.6c1.2,1,1.9,1.9,2,2.6c0.2,0.8,0.3,1.9,0.3,3.4c0,0.5,0.2,1.4,0.5,2.5s0.7,2.3,1.3,3.5c0.5,1.2,1,2.3,1.6,3.2
		c0.5,0.9,1,1.4,1.4,1.4c0.1-0.1,0.1-0.4,0.3-0.8c0.1-0.4,0.3-1,0.5-1.7s0.4-1.3,0.5-1.7c0.1-0.4,0.3-0.8,0.4-1
		c1-2.2,1.9-3.9,2.6-5.3c0.7-1.4,1.2-2.3,1.6-2.8c1.3-1.8,2.8-2.7,4.6-2.7c2.4,2.6,4.1,5.1,5.1,7.4c0.5,1.2,1,2.4,1.7,3.5
		c0.6,1.2,1.3,2.3,2.1,3.4l1.2-2.2c0.4-0.8,0.9-1.7,1.4-2.8c0.5-1.1,1.1-2.4,1.7-3.9c0.5-1.3,1-2.5,1.5-3.5c0.4-1,1-2.1,1.7-3.2
		s1.6-2.3,2.6-3.7c0.4-0.6,1-1.1,1.8-1.5s1.7,0.8,2.8,3.7c0,3.6-0.5,6.7-1.4,9.4c-0.9,2.7-2.4,5.3-4.5,7.9c-2.1,2.5-5,5.4-8.6,8.6
		c-0.4,0-0.7,0-1.1,0s-0.6-0.1-0.9-0.1c-0.9-0.1-1.7-0.6-2.4-1.4s-1.4-1.9-2.1-3.1c-0.6-1.2-1.3-2.4-2-3.7c-0.7-1.2-1.4-2.4-2.2-3.3
		c-0.9,2.7-1.6,4.9-2.2,6.8c-0.6,1.9-1,3.3-1.4,4.4C165.9,98.3,164.5,99.7,162.6,99.7z"/>
	<path d="M224.8,95.9c-1.5,0-3.1-0.1-4.9-0.3c-1.7-0.2-3.5-0.8-5.2-1.7s-3.5-2.4-5.2-4.5c-1.7-2.1-3.4-5.1-4.9-8.8
		c-0.2-0.9-0.4-1.7-0.5-2.5s-0.2-1.6-0.2-2.4c0-2.5,0.7-4.6,2.2-6.2c1.4-1.6,3.7-3.1,6.9-4.5c3-1.2,5.7-1.9,8.1-1.9
		c1.8,0,3.6,0.3,5.2,0.8c5.2,1.6,7.8,3.8,7.8,6.7c0,1.8-1.1,3.9-3.2,6.5c-0.6,0.8-1.4,1.5-2.2,2.1c-0.8,0.6-1.9,1.4-3.2,2.1
		c-1.3,0.8-3,1.7-5.1,2.9c-0.6,0.4-1.5,0.6-2.7,0.6c-0.6,0.1-1.1,0.1-1.5,0.2s-0.7,0.1-0.9,0.2c0.4,1.8,1.5,3.1,3.1,4.1
		c1.6,0.9,3.4,1.4,5.4,1.4c1.7,0,3.2-0.4,4.6-1.1c1.9-1,3.7-2.2,5.2-3.7c1-1,2-1.5,2.9-1.5c0.6,0,1.1,0.3,1.5,0.9
		c0.4,0.8,0.6,1.6,0.6,2.6c0,1.1-0.2,1.9-0.6,2.5c-1.4,2.2-3.2,3.7-5.5,4.5C230.4,95.5,227.8,95.9,224.8,95.9z M214.7,78.9
		c1.9-1.4,3.6-2.7,5-3.9c1.5-1.2,2.7-2.2,3.7-3c0.3-0.3,0.5-0.9,0.5-1.8c0-0.6,0-1-0.1-1.1c-0.1-0.3-0.3-0.5-0.6-0.7
		c-0.4-0.2-0.6-0.3-0.6-0.3c-1-0.1-2.1,0.2-3.2,1.1c-1.2,0.8-2.4,1.9-3.5,3.3s-2.1,3-3,4.7C213.3,79.1,213.9,79.7,214.7,78.9z"/>
	<path d="M303.7,98c-2-0.2-3.9-0.8-5.6-1.9c-1.8-1.1-3.1-2.6-4.1-4.6c-0.5-1-0.9-1.8-1.3-2.5s-1-1.4-1.7-2.1
		c-0.1,0.2-0.1,0.5-0.3,0.9c-0.1,0.4-0.3,0.9-0.5,1.6c-0.4,1.2-0.7,2.2-1,2.9c-0.3,0.8-0.6,1.3-0.8,1.7c-0.3,0.6-0.8,1.3-1.4,1.8
		c-0.6,0.6-1.2,0.9-1.8,0.9c-0.5,0.1-0.9,0.1-1.3,0.1s-0.6,0-0.9,0c-1.9,0-3.4-0.5-4.4-1.4c-1.1-0.9-2-2.6-2.9-4.9l-1.6-4.7
		c-0.6-2.1-1.3-3.7-1.9-5s-1.2-2.5-1.9-3.7c-0.7-1.2-1.5-2.6-2.6-4.3c-0.2-0.3-0.4-0.7-0.6-1.3s-0.2-0.9-0.1-1
		c0.3-0.2,0.7-0.5,1.2-1c0.3-0.2,0.7-0.4,1.2-0.7c0.5-0.2,1.1-0.5,1.8-0.7c2,0,3.8,1.5,5.3,4.6c0.8,1.6,1.5,3,2.1,4.2
		s1.2,2.3,1.8,3.2l2.2,5.6c1.5-2.4,2.9-4.4,4.1-6s2.7-2.4,4.6-2.4l1.7,0.2c1.8,0.3,3.1,1,3.9,2.1s1.5,2.6,2.2,4.7
		c0.3,0.9,0.6,1.7,0.9,2.4c0.3,0.7,0.6,1.2,0.8,1.7l2.4-8.3c0.5-1.7,0.9-3.6,1.2-5.8c0.3-2.2,0.5-4.7,0.6-7.5
		c0.3-0.9,0.7-1.6,1.4-2.2c0.7-0.6,1.6-0.9,2.7-0.9c0.5,0,0.9,0.1,1.3,0.2c1,0.4,1.7,0.9,2.2,1.3c0.5,0.5,0.8,1.1,0.8,2.1
		c0,0.2,0,0.4,0,0.6s0,0.3-0.1,0.4c-0.2,0.9-0.5,2.3-0.9,4.1c-0.4,1.8-0.8,4-1.4,6.7L308.6,90c-0.1,0.3-0.1,0.6-0.2,0.9
		s-0.1,0.5-0.2,0.7c-0.1,0.9-0.2,1.6-0.3,2.3s-0.5,1.3-1.1,1.9C306.5,96.6,305.4,97.2,303.7,98z"/>
	<path d="M338.4,98.2c-2.5,0-5.1-0.6-7.9-1.7c-2.7-1.1-5.3-5-7.9-11.6c-0.1-0.6-0.1-1.2-0.1-1.7s0-0.9,0-1.3c0-1.9,0.2-3.7,0.5-5.4
		c0.4-1.7,1.3-3.8,2.7-6.4c0.1-0.2,0.5-0.6,1.1-1.1s1.4-1.2,2.5-2.1c2.2-1.7,4.8-2.6,8-2.6c1.6,0,3.5,0.4,5.5,1.1l2.8,1
		c1.5,0.5,3.6,2.3,6.2,5.2l1.5,2.7c0.4,0.7,0.9,2.4,1.5,5.1c-0.3,1.5-0.6,2.9-0.8,4.1c-0.2,1.2-0.6,2.4-1.1,3.5
		c-0.5,1.2-1.4,2.5-2.6,4s-3,3.4-5.3,5.7C342.8,97.7,340.7,98.2,338.4,98.2z M338,91.2c2.4-0.4,4.1-1.2,5-2.4c0.9-1,2-4.7,3.4-10.9
		c0-3.4-1.5-6.2-4.5-8.5c-0.8-0.6-1.7-0.9-2.7-0.8s-2,0.5-2.8,1.2c-1.3,1.1-2.3,2.1-3.1,3c-0.8,0.9-1.3,2.2-1.7,3.8s-0.5,4-0.5,7.1
		c0.1,0.2,0.1,0.5,0.2,0.8s0.1,0.7,0.2,1.1c0.1,0.8,0.4,1.8,1,3c0.6,0.9,1.4,1.5,2.2,2C335.4,91.1,336.5,91.3,338,91.2z"/>
	<path d="M399.2,95.5c-1.5-0.6-2.6-1.4-3.4-2.4c-0.8-0.9-1.4-2.2-1.7-3.7c-0.3-1.8-0.8-3.6-1.5-5.4s-1.3-3.5-1.9-5.2
		c-0.2-0.8-0.6-1.2-1-1.2c-0.5,0-1,0.3-1.6,0.9c-1.7,2.2-2.9,4.6-3.6,7.2s-1.5,5.2-2.4,7.7c-0.2,0.9-0.7,1.5-1.5,2s-1.6,0.4-2.6-0.2
		s-1.9-1.4-2.9-2.3s-1.4-2.3-1.3-4.1c0.1-1.9,0.1-3.9,0-6s-0.2-4.1-0.3-6.1c0-0.4-0.2-0.9-0.5-1.3c-0.4-0.5-0.6-0.9-0.9-1.3
		c-0.5,0.4-1,0.7-1.5,1c-0.4,0.3-0.9,0.5-1.3,0.7c-0.7,0.2-1.4,0.5-2,0.8S366,77,365.4,77c-0.8-0.1-1.5-0.4-2.2-1s-1.4-1.1-2-1.7
		c-0.1-0.1,0.2-0.6,0.7-1.3c0.5-0.8,1.1-1.4,1.7-1.8c1-0.8,2.1-1.6,3.1-2.5c1-0.8,2.2-1.5,3.4-2.1c1.2-0.5,2.6-0.7,4.1-0.6
		c1.7,0.1,3.2,0.7,4.3,1.7c1.1,1.1,1.8,2.5,2,4.4c0,0.4,0,1.1,0,2c0,1,0,1.8,0,2.4c0.6-0.4,1.2-0.9,1.7-1.7c0.6-0.8,1-1.3,1.3-1.7
		c1.4-1.2,2.8-1.9,4.4-2c1.6-0.2,3.1,0.1,4.6,0.8c1.2,0.5,2.3,1.4,3.2,2.6c0.9,1.2,1.6,2.5,2.2,3.8c0.8,1.6,1.4,3.4,1.8,5.2
		c0.5,1.8,0.9,3.6,1.3,5.4c0.2,0.8,0.3,1.6,0.4,2.4s0.2,1.6,0.2,2.4c0.1,0.7-0.1,1.2-0.6,1.5C400.6,95.6,399.9,95.7,399.2,95.5z"/>
	<path d="M409.9,64.5l-0.5-1.4c-0.3-0.8-0.4-1.4-0.4-1.9s0.2-1.4,0.7-2.8c2.1-5.7,3-11.1,2.8-16.2c-0.1-1.4,0.3-3,1.2-4.8
		c0.2-0.5,0.6-0.9,1.1-1.2s1-0.4,1.5-0.4c0.6,0,1.3,0.2,1.9,0.6c1,0.6,1.8,1.5,2.5,2.7c0.7,1.1,1,2.3,1,3.5c0,0.5-0.1,1.1-0.2,1.7
		c-2.1,6.4-4.1,11.7-6.1,16.1c-0.5,1.2-1.3,2.3-2.2,3C412.3,64.1,411.2,64.5,409.9,64.5z"/>
	<path d="M449.4,97.3c-1.1,0-2.4-0.1-3.7-0.2c-1.3-0.2-2.6-0.6-3.8-1.4c-1.2-0.8-2.3-2.1-3.2-3.9c-0.9-1.8-1.6-4.4-2-7.7
		c0.1-0.5,0.1-1.2,0.1-2s0-1.8,0-2.8c0-1.7,0-3.5-0.1-5.3s-0.2-3.6-0.3-5.4c-0.1-0.3-0.3-0.6-0.6-0.7l-1.6-0.4
		c-1.3-0.3-2.1-0.6-2.4-0.9c-0.4-0.4-0.6-0.9-0.8-1.4s-0.3-1.2-0.4-2c0.5-1.1,1.4-1.7,2.7-1.7c0.3,0.1,0.6,0.1,0.9,0.1
		c0.2,0,0.4,0,0.5,0c1.1,0,1.8-0.3,2-1c0.3-0.7,0.4-2.1,0.4-4.3l0.2-4.9c0.1-2.1,0.2-5.3,0.5-9.6c0.1-2.2,1.1-3.3,3-3.3
		c0.3,0,0.6,0,0.9,0c0.2,0,0.5,0.1,0.7,0.1c2.2,0.5,3.7,1.2,4.5,2.1c0.8,0.9,1.1,1.9,0.9,3c-0.1,1.1-0.3,2.3-0.4,3.4
		c-1.6,9.5-2.1,14.4-1.5,14.7c0,0.4,0.4,0.8,1.1,1.1c0.7,0.2,1.8,0.3,3.2,0.2c1.2-0.3,2.3-0.5,3.3-0.7c0.9-0.2,1.7-0.3,2.4-0.4
		c0.1-0.1,0.3-0.1,0.5-0.1s0.5,0,0.8,0c0.6,0,1.1,0.1,1.3,0.2c0.5,0.3,0.7,1.2,0.7,2.7c0,0.6-0.1,1.1-0.2,1.6s-0.3,0.8-0.5,0.8
		c-0.7,0.2-1.5,0.4-2.4,0.6s-1.8,0.3-2.8,0.4c-1.2,0.2-2.2,0.4-3.1,0.6s-1.6,0.4-2.2,0.5c-0.6,0.2-1.2,0.6-1.8,1.2
		c-0.6,0.6-0.9,1.2-1,1.8l-0.2,8.1c-0.1,2.1,0,4.2,0.2,6.3c0.2,1.8,0.5,3.1,1.1,3.9c0.5,0.8,1.4,1.2,2.4,1.2c0.8,0,2.1-0.3,3.7-0.9
		c0.8-0.4,1.6-0.6,2.3-0.6c1.1,0,1.8,0.6,2.2,1.7c0.2,0.4,0.2,0.8,0.2,1.1c0,0.7-0.3,1.3-0.8,1.7c-0.5,0.4-1.2,0.8-2.1,1.1
		C452.7,97,451.1,97.3,449.4,97.3z"/>
	<path d="M508.7,130.2c-1.7,1.2-3.5,1.7-5.2,1.5s-3.4-0.9-5-2c-0.8-0.5-1.3-1.3-1.7-2.4s-0.4-2.2-0.2-3.4c0.2-1.2,0.6-2.2,1.3-3
		c0.6,0.7,1.1,1.4,1.7,2.1c0.5,0.7,1,1.4,1.3,2c0.5,0.6,1,1,1.4,1c0.5,0,1-0.1,1.5-0.5c2.9-2.1,4.9-4.6,6-7.5
		c1.2-2.9,1.6-6.1,1.4-9.5c-0.1-1.1-0.4-1.7-0.9-2c-0.5-0.2-1.2-0.2-2.1,0c-0.9,0.3-1.7,0.6-2.5,0.9s-1.5,0.7-2.2,1.2
		c-1.2,0.9-2.4,1.4-3.6,1.4c-1.2,0-2.4-0.3-3.5-1c-1-0.6-1.5-1.4-1.4-2.5s0.3-2.3,0.6-3.7c0.2-1.1,0.3-2,0.4-2.7
		c0.1-0.7,0.1-1.3-0.1-1.9c-0.2-0.6-0.7-1.2-1.5-2s-2.1-1.7-3.7-2.8c-1-0.6-1.7-1.7-2.2-3.2s-0.8-3.2-0.9-5.2
		c-0.1-1.9,0-3.8,0.3-5.8c0.3-1.9,0.7-3.7,1.3-5.2s1.3-2.7,2.2-3.4c0.6-0.5,1.5-1,2.6-1.3s2.2-0.5,3.3-0.5s2.1,0.1,2.8,0.5
		c1.2,0.6,2.4,1.3,3.5,1.9s2.3,1.2,3.5,1.7c0.4,0.2,0.8,0.3,1.4,0.3c0.5,0,1-0.1,1.4-0.4c1.1-0.6,1.9-1.2,2.6-1.7
		c0.6-0.5,1.3-0.9,2-1.4s1.5-1,2.6-1.7c0.5-0.3,1.2-0.5,1.9-0.6s1.4-0.1,1.9,0c1.2,0.2,2.1,0.7,2.5,1.7s0.2,1.9-0.6,2.8
		c-0.8,0.8-1.5,1.5-1.9,2.2c-0.5,0.6-1,1.2-1.5,1.7s-1.2,1.2-2.2,1.9c-0.6,0.4-1.4,0.7-2.4,0.7s-2,0.1-3,0.2
		c0.2,0.6,0.3,1.2,0.5,1.8c0.2,0.6,0.3,1.3,0.4,1.9c0.4,2.9-0.1,5.7-1.6,8.4c-1.5,2.7-3.6,4.8-6.2,6.4c-0.3,0.2-0.5,0.5-0.6,1.1
		s-0.1,1.2-0.2,1.8c0,0.6-0.1,1.1-0.4,1.4c0.4,0.2,0.8,0.1,1.4-0.2c0.5-0.3,1.1-0.6,1.6-0.9c0.5-0.4,0.9-0.6,1.3-0.6
		c2.7-0.2,4.9,0.3,6.6,1.5c1.7,1.2,3.2,3.1,4.6,5.4c0.2,0.4,0.4,0.8,0.6,1.2c0.2,0.4,0.2,0.8,0.2,1.3c-0.1,2.9-0.6,5.7-1.4,8.4
		s-2.2,5.2-4.2,7.4c-0.8,0.9-1.7,1.7-2.7,2.6C510.8,128.7,509.7,129.5,508.7,130.2z M498.8,89.8c0.7,0.3,1.2,0.5,1.5,0.5
		s0.9-0.1,1.8-0.5c1.4-0.5,2.2-1.5,2.5-2.8s0.7-2.6,1.2-3.9c-0.6-1.2-1.2-2.4-1.7-3.7c-0.5-1.2-1.2-2.5-1.9-3.7
		c-0.3-0.4-0.9-0.8-1.7-1.1c-0.8-0.3-1.8-0.4-3-0.4c-0.6,0.5-1.1,1.4-1.5,2.5s-0.7,2.2-0.9,3.3c-0.2,1.1-0.4,2-0.4,2.6
		c0,0.4,0.1,1,0.4,2c0.3,0.9,0.7,1.9,1.3,2.9C497,88.6,497.8,89.3,498.8,89.8z"/>
	<path d="M556.1,100c-0.9,1.1-1.6,1.5-2.2,1.2c-0.6-0.3-1.1-1-1.5-2.2c-0.4-1.1-0.7-2.5-0.9-4.1s-0.3-3.1-0.2-4.6
		c0-1.5,0.1-2.7,0.3-3.7c0-2.2-0.4-3.9-1.2-5.1s-2.3-2.4-4.4-3.7c-0.3-0.1-0.7,0.2-1.4,0.8c-0.6,0.6-1.2,1.3-1.6,1.9
		c-1.2,1.2-2,2.6-2.5,4.1s-0.8,3-1,4.6s-0.4,3.3-0.6,5c-0.2,1.9-1.4,2.9-3.6,2.9c-1.1,0-2.1-0.3-3.1-0.9s-1.8-1.4-2.4-2.4
		c-0.6-1-0.9-2-0.9-3.1c-0.1-4.3-0.2-8.9-0.2-13.8c-0.1-5-0.1-9.9-0.1-14.8s0-9.5,0-13.6c0-1.7,0.5-2.8,1.6-3.3s2.1-0.9,3.2-1.2
		c0.7-0.1,1.5,0.1,2.4,0.5c0.9,0.5,1.6,1.1,2.3,1.8c0.6,0.7,1,1.4,1,2.2c-0.1,1.8-0.2,3.9-0.3,6.4c-0.2,2.5-0.3,5-0.4,7.4
		c-0.1,2.5-0.3,4.6-0.4,6.4c0,1.2-0.1,2.7-0.2,4.4c-0.1,1.8-0.3,3.4-0.4,5.1c0.6-0.3,1-0.6,1.1-1c0.1-0.3,0.3-0.7,0.4-1.3
		c0.1-0.5,0.5-1.1,1.2-1.9c1.6-1.9,3.4-2.9,5.3-3c1.9-0.1,3.8,0.2,5.6,1.1s3.4,1.9,4.6,3.2c1.2,1.2,2.2,2.8,3,4.8s1.2,4.2,1.4,6.6
		s0,4.7-0.6,7.1C558.5,96,557.5,98.1,556.1,100z"/>
	<path d="M582.1,95.2c-2.4,0-4.8-0.5-7.1-1.4s-4.7-5.2-7.1-13.1l1.2-7.5c0.5-2.1,1.6-3.6,3.1-4.4s3.5-1.5,6.1-2.1
		c1.6-0.3,3.2-0.5,4.8-0.5c4.9,0,9.1,1.7,12.6,5c1.8,1.8,2.7,4,2.7,6.6s-0.9,5.3-2.8,8.2c-2.2,3.4-4.7,5.9-7.4,7.5
		C586.3,94.6,584.3,95.2,582.1,95.2z M580.3,88.6c0.3,0.2,0.9,0.3,1.8,0.2c0.9-0.1,1.6-0.4,2.2-0.8c0.5-0.5,1.2-1.3,1.9-2.4
		c0.8-1.1,1.4-2.4,2.1-3.8c0.6-1.4,0.9-2.8,0.9-4.1c0-1.7-0.5-3.3-1.5-4.7c-1-1.4-2.3-2.4-4.1-2.9c-0.2-0.1-0.5-0.1-1-0.1
		c-1.1,0-1.7,0.2-1.8,0.5c-0.4,1.1-0.9,2.3-1.3,3.7c-0.5,1.4-1,2.9-1.5,4.5l-0.2,2.8c0,0.4,0,1,0,1.8s0.1,1.5,0.3,2.1
		C578.7,87.1,579.4,88.1,580.3,88.6z"/>
	<path d="M612.2,98.6c-4.5,0-7.4-1.9-8.7-5.8c0.4,0,1,0,1.7,0s1.3,0.1,1.8,0.2c0.4,0.1,0.7,0.1,1,0.1s0.5,0,0.6,0
		c2.4,0,4.5-1.1,6.1-3.2c1.1-1.6,1.7-3.2,1.7-4.8c0-1.1-0.3-2.1-0.8-3.2c-0.6-1.1-1.3-2.2-2-3.4c-0.7-1.2-1.5-2.4-2.4-3.6
		c-0.5-0.9-1.1-1.7-1.6-2.5s-1-1.6-1.5-2.3c-1.1-1.7-1.6-3.7-1.6-5.8c0-1.9,0.6-3.7,1.7-5.2c1.1-1.5,2.7-2.4,4.9-2.8l2.6-0.5
		c1.4-0.3,2.6-0.5,3.7-0.6c1.1-0.1,1.9-0.2,2.6-0.2c2.3,0,4.3,0.5,6.2,1.6c0.4,0.3,0.8,0.7,1.2,1.4s0.7,1.2,0.9,1.6
		c-0.2,0.1-0.4,0.1-0.7,0.3c-0.2,0.1-0.5,0.3-0.9,0.4c-0.4,0.2-0.7,0.4-1,0.4c-0.3,0.1-0.5,0.1-0.8,0.2c-0.4,0.1-0.9,0.1-1.4,0.1
		c-0.6,0-1.2,0-2,0c-0.7,0-1.3,0-1.9,0c-0.6,0-1,0-1.4,0.1c-1.7,0.2-3.1,0.7-4.1,1.7s-1.5,2.2-1.5,3.6c0,1.1,0.3,2.2,1,3.3
		c1.4,2.3,3.4,5.1,6.1,8.4c1.9,2.4,2.9,5,2.9,7.5c0,1.4-0.3,2.9-1,4.5C621.6,95.9,617.8,98.6,612.2,98.6z"/>
	<path d="M654.8,98.6c-1.9,0-3.8-0.4-5.6-1.3c-1.8-0.8-3.1-1.9-3.7-3.3c-0.9-1.8-1.7-3.9-2.4-6.2c-0.8-2.3-1.5-4.9-2.3-7.7
		c-0.2-0.8-0.3-1.8-0.5-3c-0.2-1.3-0.3-2.7-0.4-4.4l-0.2-3c-0.1-1.2-0.1-2.2,0-2.9c0.1-0.6-0.9-1.1-3.2-1.2
		c-0.8-0.1-1.2-0.6-1.2-1.6c0.5-1.8,1.4-2.9,2.5-3.1c1.5-0.3,2.3-1,2.4-2.1c0-1,0.1-2.1,0.2-3.2c0.3-1.7,0.4-3.6,0.4-5.6
		s0-4-0.1-6.2c-0.1-2.1,0.5-3.2,1.9-3.6l0.7,0.1c0.2,0.1,0.8,0.1,1.9,0.2c1.1,0.2,1.9,0.4,2.6,0.8c1.9,1.1,2.8,2.9,2.8,5.4
		c0,1-0.2,2.4-0.6,4.2l-0.5,1.5c-0.2,0.8-0.2,1.5-0.2,2c-0.5,1.6-0.1,2.4,1.1,2.4c0.2,0,0.6-0.1,1.1-0.2c0.5-0.1,1.2-0.3,2.1-0.6
		c0.3-0.1,0.9-0.2,1.8-0.3c0.9-0.1,1.8-0.1,2.6-0.1c1.5,0,2.9,0.9,4.1,2.8l-1.1,0.8c-1.2,0.9-3,1.6-5.4,2.1
		c-1.4,0.6-2.5,1.2-3.4,1.7s-1.6,1.2-2.2,2.1c-0.6,0.9-1.2,2.4-1.9,4.5c0,0.6,0.2,2.3,0.5,5L649,78c0.3,2.1,0.5,3.9,0.7,5.4
		s0.3,2.8,0.4,3.8c0.1,0.4,0.2,1,0.4,1.6c0.1,0.6,0.5,1.1,1,1.5s1.4,0.5,2.7,0.2c2.2-2.5,3.6-4.4,4.2-5.4l0.8-1.4
		c0.4-0.6,1.2-1.3,2.5-2l0.8,0.2c0.9,0.3,1.6,0.7,2.1,1.2s0.8,1.3,0.8,2.4c0,0.5,0,0.9-0.1,1.1c-0.3,2.2-1.1,4.1-2.3,5.8
		c-1.2,1.7-2.8,3.4-4.7,5.1C657.9,98.3,656.6,98.6,654.8,98.6z"/>
	<path d="M706.2,129.1c-0.6,0.2-1.4,0-2.2-0.5s-1.6-1-2.2-1.6c-0.3-0.3-0.5-0.8-0.5-1.5s0.1-1.3,0.3-1.8c0.9-2.2,1.9-4.4,3-6.7
		c1.1-2.2,1.9-4.5,2.6-6.8c0.7-2.2,1.2-4.1,1.6-5.5c0.4-1.5,0.7-2.8,1-3.9s0.6-2.3,0.9-3.5c0.5-1.7,0.9-3.5,1.2-5.2
		c0.2-1.8,0.5-3.5,0.7-5.2c0.2-1.2,0.2-2.1,0.1-2.6c-0.1-0.5-0.5-0.8-1.2-0.9s-1.9-0.2-3.5-0.2c-2-0.3-3.8-1.2-5.5-2.7
		s-3.1-3.3-4.3-5.5c-0.6-1.2-1.1-2.4-1.5-3.7c-0.4-1.3-0.9-2.6-1.4-3.8c-0.4-1.2-0.5-2.4-0.3-3.4s1.1-1.7,2.6-2.1
		c1.3-0.4,2.6-0.3,3.8,0.3s2,1.7,2.5,3.1c0.3,0.8,0.5,1.5,0.6,2.3s0.2,1.6,0.3,2.3c0.1,0.4,0.2,0.7,0.2,1.1s0,0.7,0.1,1.1
		c0.6,2.1,1.3,3.3,2.2,3.6c0.9,0.4,2.1-0.1,3.6-1.5c0.9-0.8,1.8-1.7,2.5-2.8c0.8-1.1,1.3-2.1,1.7-3.2c0.6-1.9,1.5-3.1,2.6-3.5
		c1.1-0.5,2.4-0.5,3.9-0.1c1.7,0.4,2.9,1.2,3.5,2.4c0.6,1.2,0.7,2.6,0.4,4.3c-1,4.5-2,9.1-2.8,13.6s-1.9,9.1-3.3,13.7
		c-0.4,1.5-0.9,2.9-1.3,4.4c-0.5,1.5-1,3.1-1.5,4.9s-1.2,3.9-1.9,6.5c-0.5,1.9-1.2,3.8-1.9,5.6c-0.7,1.9-1.5,3.7-2.4,5.5
		c-0.4,0.8-1,1.6-1.7,2.3C707.8,128.5,707,128.9,706.2,129.1z"/>
	<path d="M748.1,95.2c-2.4,0-4.8-0.5-7.1-1.4s-4.7-5.2-7.1-13.1l1.2-7.5c0.5-2.1,1.6-3.6,3.1-4.4s3.5-1.5,6.1-2.1
		c1.6-0.3,3.2-0.5,4.8-0.5c4.9,0,9.1,1.7,12.6,5c1.8,1.8,2.7,4,2.7,6.6s-0.9,5.3-2.8,8.2c-2.2,3.4-4.7,5.9-7.4,7.5
		C752.4,94.6,750.4,95.2,748.1,95.2z M746.3,88.6c0.3,0.2,0.9,0.3,1.8,0.2c0.9-0.1,1.6-0.4,2.2-0.8c0.5-0.5,1.2-1.3,1.9-2.4
		c0.8-1.1,1.4-2.4,2.1-3.8c0.6-1.4,0.9-2.8,0.9-4.1c0-1.7-0.5-3.3-1.5-4.7c-1-1.4-2.3-2.4-4.1-2.9c-0.2-0.1-0.5-0.1-1-0.1
		c-1.1,0-1.7,0.2-1.8,0.5c-0.4,1.1-0.9,2.3-1.3,3.7c-0.5,1.4-1,2.9-1.5,4.5l-0.2,2.8c0,0.4,0,1,0,1.8s0.1,1.5,0.3,2.1
		C744.7,87.1,745.4,88.1,746.3,88.6z"/>
	<path d="M789.1,97.9c-2.8,0-5.3-0.7-7.5-2.1c-3.7-2.4-5.9-5.8-6.6-10.2c-0.2-2.2-0.5-3.9-0.7-5.1c-0.3-1.6-0.5-3-0.6-4.3
		c-0.2-1.3-0.3-2.3-0.4-3.2c-0.1-1.2,0.4-2.3,1.3-3c0.9-0.8,2-1.2,3.3-1.2c0.5,0,1,0.1,1.5,0.2c2,0.7,3.4,1.7,4.1,3
		c0.8,1.3,1.1,3.1,1.1,5.3c-0.1,0.9-0.1,1.6-0.1,2.3c0,0.6,0,1.2,0,1.6c0,3,0.6,5.6,1.9,7.6c0.2,0.4,0.5,0.8,0.9,1.2
		c0.4,0.4,0.6,0.5,0.7,0.5c0.4-0.1,0.9-0.2,1.3-0.6c0.4-0.3,0.7-0.7,1-1.1c1.8-3,2.7-6.8,2.7-11.3c0-0.7,0-1.6-0.1-2.6
		s-0.1-2.2-0.2-3.6V63c0-1.7,0.6-2.6,1.9-2.6c0.5,0,0.9,0.1,1.3,0.2c2.8,1.2,4.3,2.5,4.7,3.8c1.4,4.4,2,8.7,2,13.1
		c0,4.7-0.9,9.2-2.6,13.6c-0.9,2.3-2.3,4-4.3,5.1C793.5,97.3,791.4,97.9,789.1,97.9z"/>
	<path d="M816.1,99.5c-0.6,0-1.3-0.2-1.9-0.5c-2.5-1-3.7-2.9-3.7-5.5c0-1,0.1-2,0.4-3l2.3,0.5c0.5,0.1,1,0.2,1.4,0.3
		c0.4,0.1,0.8,0.2,1.2,0.3c0.4,0.1,0.9,0.3,1.3,0.5c0.4,0.2,0.8,0.5,1.2,0.8c1,0.9,1.5,1.9,1.5,3c0,0.7-0.2,1.4-0.6,1.9
		C818.2,99,817.3,99.5,816.1,99.5z M816.9,87.9c-0.4,0-0.7-0.1-1-0.3c-0.3-0.3-0.6-0.8-0.9-1.5c-0.2-0.7-0.4-1.3-0.4-1.8
		c0.1-0.9,0.2-1.9,0.4-2.9s0.4-2.1,0.6-3.3c2.8-11.6,4.4-22.2,4.8-32l0.1-1.2c0.1-2.1,0.4-3.6,0.9-4.6c0.5-0.9,1.3-1.4,2.5-1.4
		c0.6,0,1.3,0.3,2,0.9c0.7,0.6,1.3,1.4,1.8,2.3s0.9,1.8,1,2.7l0.8,6.2l-0.5,2.9c-0.2,1.6-0.4,3-0.6,4.1c-0.2,1.1-0.4,2-0.5,2.7
		c-0.4,1.6-0.9,3.7-1.5,6.3s-1.4,5.8-2.4,9.5c-0.4,1.5-0.8,2.8-1.2,3.9s-0.8,2-1.1,2.7c-0.4,0.8-0.8,1.6-1.4,2.3
		c-0.5,0.7-1.2,1.4-1.9,2.1C818.1,87.7,817.6,87.9,816.9,87.9z"/>
</g>
<path d="M31.1,66c0.6,1.4,1.4,2.9,1.8,4.4c0.3,1,0.3,2.1,0.1,3.1c-0.3,1.5-1.4,2-2.9,1.6c-2.5-0.6-4.5-2.1-6-4
	c-4.6-5.8-9.1-11.7-13.6-17.6c-1.8-2.3-0.7-5.7,2.1-6.7c7.1-2.5,14.4-4.5,22-5.3c1.8-0.2,3.5-0.2,5.3-0.2c4.3-0.2,5.1,3.3,4.3,5.9
	c-0.6,2-1.9,3.3-4.1,3.7c-4.4,0.7-8.9,1.5-13.5,2.3c0.3,0.2,0.4,0.3,0.5,0.4c12.5,5.7,25.2,10.9,38.3,14.9c10.6,3.3,21.4,5.9,32.3,8
	c5.8,1.1,11.6,2.2,17.5,3c2.1,0.3,4.1,0.6,6.1,1.2c1.8,0.5,3.2,1.6,4.5,3c0.7,0.7,0.3,1.9-0.8,2.7c-1.7,1.2-3.6,1.7-5.7,1.7
	c-3.2-0.1-6.4-0.2-9.5-0.6c-5.3-0.7-10.6-1.4-15.9-2.3c-11.4-2-22.7-4.5-33.7-8.1c-9.7-3.2-19.2-6.8-28.7-10.7
	C31.5,66.1,31.2,66,31.1,66z"/>
</svg>
